<svg xmlns="http://www.w3.org/2000/svg" width="39.124" height="37.36" viewBox="0 0 39.124 37.36"><defs><style>.a{fill:#eb5926;}</style></defs><path class="a" d="M44.6,32.118,32.3,30.978,27.41,19.632a.986.986,0,0,0-1.811,0L20.714,30.978l-12.3,1.141a.986.986,0,0,0-.559,1.722l9.281,8.153L14.419,54.044a.986.986,0,0,0,1.465,1.064L26.5,48.8l10.622,6.307a.986.986,0,0,0,1.465-1.064L35.875,41.993l9.281-8.153A.986.986,0,0,0,44.6,32.118Z" transform="translate(-6.943 -18.463)"/><path class="a" d="M27.41,19.632a.986.986,0,0,0-1.811,0L20.714,30.978l-12.3,1.141a.986.986,0,0,0-.559,1.722l9.281,8.153L14.419,54.044a.986.986,0,0,0,1.465,1.064L18.254,53.7A43.473,43.473,0,0,1,29.826,25.242Z" transform="translate(-6.943 -18.463)"/><path d="M122.158,99.7a1.538,1.538,0,0,0-1.339-1.07l-11.961-1.109-2.371-5.506a.573.573,0,0,0-1.053.453l2.506,5.818a.573.573,0,0,0,.473.344l12.3,1.141a.413.413,0,0,1,.234.721l-9.281,8.153a.573.573,0,0,0-.181.557l2.716,12.051a.413.413,0,0,1-.613.446l-10.622-6.307a.573.573,0,0,0-.585,0l-10.622,6.307a.413.413,0,0,1-.613-.445l1.4-6.221a.573.573,0,1,0-1.118-.252L90.03,121a1.559,1.559,0,0,0,2.316,1.683l10.329-6.133L113,122.68a1.538,1.538,0,0,0,1.712-.079,1.538,1.538,0,0,0,.6-1.6l-2.641-11.719,9.025-7.928A1.538,1.538,0,0,0,122.158,99.7Z" transform="translate(-83.113 -85.542)"/><path d="M8.87,38.322a.573.573,0,1,0,1.118.252l.762-3.38a.573.573,0,0,0-.181-.557l-9.28-8.153a.413.413,0,0,1,.234-.721l12.3-1.141a.573.573,0,0,0,.473-.344l4.886-11.346a.413.413,0,0,1,.758,0l1.327,3.082a.573.573,0,0,0,1.053-.453L20.993,12.48a1.559,1.559,0,0,0-2.863,0L13.379,23.513,1.417,24.623a1.559,1.559,0,0,0-.885,2.723l9.025,7.928Z" transform="translate(0 -11.538)"/></svg>