<svg xmlns="http://www.w3.org/2000/svg" width="44.01" height="51.769" viewBox="0 0 44.01 51.769"><defs><style>.a{fill:#eb5926;}</style></defs><g transform="translate(-28.251 0)"><g transform="translate(43.888 19.5)"><g transform="translate(0)"><path class="a" d="M154.487,154.314l-3.1-10.183-.582-1.9a1.108,1.108,0,0,1,0-.22L143.7,144.12a2.2,2.2,0,0,0-1.485,2.729l0,.006,3.021,10.205a2.213,2.213,0,0,0,2.735,1.483l7.151-2.131Z" transform="translate(-142.125 -142.011)"/></g></g><g transform="translate(54.591 16.673)"><path class="a" d="M233.019,133.194l0-.006-3.032-10.194a2.2,2.2,0,0,0-2.729-1.485l-.006,0-7.173,2.131a1.1,1.1,0,0,1,.1.187l.582,1.911,3.1,10.183.637,2.1,7.041-2.1A2.2,2.2,0,0,0,233.019,133.194Z" transform="translate(-220.077 -121.419)"/></g><g transform="translate(48.956 3.842)"><path class="a" d="M189.589,36.9c-.006-.02-.012-.04-.018-.06l-2.2-7.283a2.2,2.2,0,0,0-2.729-1.485l-.006,0-5.6,1.67.626,2.109,2.186,7.327.626,2.054,5.591-1.626A2.2,2.2,0,0,0,189.589,36.9Z" transform="translate(-179.037 -27.979)"/></g><g transform="translate(39.779 6.252)"><g transform="translate(0)"><path class="a" d="M122.1,54.934l-2.2-7.294-.626-2.109-5.493,1.648a2.2,2.2,0,0,0-1.485,2.729l0,.006,2.153,7.294a2.2,2.2,0,0,0,2.721,1.5l.059-.018,5.493-1.648Z" transform="translate(-112.205 -45.531)"/></g></g><g transform="translate(28.251 0)"><g transform="translate(0 0)"><path class="a" d="M72.212,32.089a1.1,1.1,0,0,0-1.362-.714l-24.1,7.151L36.62,4.473a1.1,1.1,0,0,0-.494-.56L30,.21A1.1,1.1,0,1,0,28.9,2.1l5.767,3.438L44.8,39.713a6.327,6.327,0,1,0,5.493.055l21.2-6.305A1.1,1.1,0,0,0,72.212,32.089ZM51.395,44.239a4.1,4.1,0,1,1-3.911-2.977A4.1,4.1,0,0,1,51.395,44.239Z" transform="translate(-28.251 0)"/></g></g></g></svg>