<svg xmlns="http://www.w3.org/2000/svg" width="42.444" height="44.373" viewBox="0 0 42.444 44.373"><defs><style>.a{fill:#eb5926;}</style></defs><path class="a" d="M42.444,21.218A21.222,21.222,0,1,0,14.767,41.439a.852.852,0,0,0,.259.04.937.937,0,0,0,.475-.13.884.884,0,0,0,.393-.494l5.359-16.987a2.653,2.653,0,0,0-.027-5.306,2.617,2.617,0,0,0-1.137.265l-7.08-7.081A.884.884,0,0,0,11.758,13l7.076,7.085a2.6,2.6,0,0,0,.744,3.2L14.472,39.47a19.473,19.473,0,1,1,14.656-.486l-.552-2.6a.884.884,0,0,0-1.454-.476l-5.32,4.75a.885.885,0,0,0,.32,1.5l6.793,2.168A.885.885,0,0,0,30.051,43.3l-.542-2.55A21.153,21.153,0,0,0,42.444,21.218Zm-21.222-.884a.884.884,0,1,1-.884.884A.885.885,0,0,1,21.222,20.333Zm2.912,20.611,3.029-2.7L28,42.182Zm0,0"/><path class="a" d="M234.672,41.642v1.769a.884.884,0,1,0,1.769,0V41.642a.884.884,0,1,0-1.769,0Zm0,0" transform="translate(-214.334 -37.225)"/><path class="a" d="M41.7,234.617a.884.884,0,1,0,0,1.769h1.769a.884.884,0,1,0,0-1.769Zm0,0" transform="translate(-37.275 -214.284)"/><path class="a" d="M410.773,236.385a.884.884,0,1,0,0-1.769H409a.884.884,0,0,0,0,1.769Zm0,0" transform="translate(-372.75 -214.284)"/></svg>